<svg xmlns="http://www.w3.org/2000/svg" version="1.1" xmlns:xlink="http://www.w3.org/1999/xlink" xmlns:svgjs="http://svgjs.com/svgjs" width="1440" height="560" preserveAspectRatio="none" viewBox="0 0 1440 560">
    <g mask="url(&quot;#SvgjsMask1039&quot;)" fill="none">
        <path d="M1252 511L1572 191" stroke-width="10" stroke="url(#SvgjsLinearGradient1040)" stroke-linecap="round" class="TopRight"></path>
        <path d="M297 557L47 807" stroke-width="10" stroke="url(#SvgjsLinearGradient1040)" stroke-linecap="round" class="TopRight"></path>
        <path d="M458 425L821 62" stroke-width="8" stroke="url(#SvgjsLinearGradient1041)" stroke-linecap="round" class="BottomLeft"></path>
        <path d="M423 50L595 -122" stroke-width="10" stroke="url(#SvgjsLinearGradient1040)" stroke-linecap="round" class="TopRight"></path>
        <path d="M444 165L247 362" stroke-width="10" stroke="url(#SvgjsLinearGradient1041)" stroke-linecap="round" class="BottomLeft"></path>
        <path d="M342 114L754 -298" stroke-width="10" stroke="url(#SvgjsLinearGradient1041)" stroke-linecap="round" class="BottomLeft"></path>
        <path d="M1433 89L1626 -104" stroke-width="10" stroke="url(#SvgjsLinearGradient1040)" stroke-linecap="round" class="TopRight"></path>
        <path d="M209 297L-156 662" stroke-width="8" stroke="url(#SvgjsLinearGradient1041)" stroke-linecap="round" class="BottomLeft"></path>
        <path d="M319 84L120 283" stroke-width="8" stroke="url(#SvgjsLinearGradient1041)" stroke-linecap="round" class="BottomLeft"></path>
        <path d="M1039 523L839 723" stroke-width="8" stroke="url(#SvgjsLinearGradient1040)" stroke-linecap="round" class="TopRight"></path>
        <path d="M1078 123L1271 -70" stroke-width="8" stroke="url(#SvgjsLinearGradient1041)" stroke-linecap="round" class="BottomLeft"></path>
        <path d="M403 444L-15 862" stroke-width="6" stroke="url(#SvgjsLinearGradient1040)" stroke-linecap="round" class="TopRight"></path>
        <path d="M958 356L748 566" stroke-width="10" stroke="url(#SvgjsLinearGradient1040)" stroke-linecap="round" class="TopRight"></path>
        <path d="M457 61L623 -105" stroke-width="6" stroke="url(#SvgjsLinearGradient1041)" stroke-linecap="round" class="BottomLeft"></path>
        <path d="M926 360L1184 102" stroke-width="6" stroke="url(#SvgjsLinearGradient1040)" stroke-linecap="round" class="TopRight"></path>
        <path d="M707 221L1090 -162" stroke-width="8" stroke="url(#SvgjsLinearGradient1040)" stroke-linecap="round" class="TopRight"></path>
        <path d="M607 391L914 84" stroke-width="8" stroke="url(#SvgjsLinearGradient1041)" stroke-linecap="round" class="BottomLeft"></path>
        <path d="M462 379L260 581" stroke-width="6" stroke="url(#SvgjsLinearGradient1041)" stroke-linecap="round" class="BottomLeft"></path>
        <path d="M690 462L351 801" stroke-width="6" stroke="url(#SvgjsLinearGradient1040)" stroke-linecap="round" class="TopRight"></path>
        <path d="M364 29L589 -196" stroke-width="10" stroke="url(#SvgjsLinearGradient1040)" stroke-linecap="round" class="TopRight"></path>
        <path d="M172 186L572 -214" stroke-width="6" stroke="url(#SvgjsLinearGradient1041)" stroke-linecap="round" class="BottomLeft"></path>
        <path d="M1336 494L1743 87" stroke-width="10" stroke="url(#SvgjsLinearGradient1040)" stroke-linecap="round" class="TopRight"></path>
        <path d="M795 460L639 616" stroke-width="8" stroke="url(#SvgjsLinearGradient1041)" stroke-linecap="round" class="BottomLeft"></path>
        <path d="M1435 222L1826 -169" stroke-width="10" stroke="url(#SvgjsLinearGradient1040)" stroke-linecap="round" class="TopRight"></path>
        <path d="M358 41L63 336" stroke-width="6" stroke="url(#SvgjsLinearGradient1041)" stroke-linecap="round" class="BottomLeft"></path>
        <path d="M19 285L434 -130" stroke-width="6" stroke="url(#SvgjsLinearGradient1041)" stroke-linecap="round" class="BottomLeft"></path>
        <path d="M202 426L533 95" stroke-width="6" stroke="url(#SvgjsLinearGradient1041)" stroke-linecap="round" class="BottomLeft"></path>
        <path d="M383 160L114 429" stroke-width="8" stroke="url(#SvgjsLinearGradient1041)" stroke-linecap="round" class="BottomLeft"></path>
        <path d="M354 145L-38 537" stroke-width="8" stroke="url(#SvgjsLinearGradient1041)" stroke-linecap="round" class="BottomLeft"></path>
        <path d="M713 494L572 635" stroke-width="6" stroke="url(#SvgjsLinearGradient1041)" stroke-linecap="round" class="BottomLeft"></path>
        <path d="M261 533L444 350" stroke-width="10" stroke="url(#SvgjsLinearGradient1041)" stroke-linecap="round" class="BottomLeft"></path>
        <path d="M327 446L656 117" stroke-width="8" stroke="url(#SvgjsLinearGradient1040)" stroke-linecap="round" class="TopRight"></path>
        <path d="M1185 340L1593 -68" stroke-width="10" stroke="url(#SvgjsLinearGradient1040)" stroke-linecap="round" class="TopRight"></path>
        <path d="M631 236L773 94" stroke-width="8" stroke="url(#SvgjsLinearGradient1040)" stroke-linecap="round" class="TopRight"></path>
        <path d="M988 262L1170 80" stroke-width="6" stroke="url(#SvgjsLinearGradient1041)" stroke-linecap="round" class="BottomLeft"></path>
        <path d="M346 535L47 834" stroke-width="8" stroke="url(#SvgjsLinearGradient1041)" stroke-linecap="round" class="BottomLeft"></path>
        <path d="M1393 484L1652 225" stroke-width="6" stroke="url(#SvgjsLinearGradient1040)" stroke-linecap="round" class="TopRight"></path>
        <path d="M343 414L-73 830" stroke-width="6" stroke="url(#SvgjsLinearGradient1040)" stroke-linecap="round" class="TopRight"></path>
        <path d="M1273 433L969 737" stroke-width="8" stroke="url(#SvgjsLinearGradient1041)" stroke-linecap="round" class="BottomLeft"></path>
    </g>
    <defs>
        <mask id="SvgjsMask1039">
            <rect width="1440" height="560" fill="#ffffff"></rect>
        </mask>
        <linearGradient x1="0%" y1="100%" x2="100%" y2="0%" id="SvgjsLinearGradient1040">
            <stop stop-color="rgba(192, 147, 62, 0)" offset="0"></stop>
            <stop stop-color="rgba(192, 147, 62, 1)" offset="1"></stop>
        </linearGradient>
        <linearGradient x1="100%" y1="0%" x2="0%" y2="100%" id="SvgjsLinearGradient1041">
            <stop stop-color="rgba(192, 147, 62, 0)" offset="0"></stop>
            <stop stop-color="rgba(192, 147, 62, 1)" offset="1"></stop>
        </linearGradient>
    </defs>
</svg>
